<svg width="109" height="49" viewBox="0 0 109 49" fill="none" xmlns="http://www.w3.org/2000/svg">
<path d="M2.83122e-07 36V-1.43051e-06H3.675V32.475H20.775V36H2.83122e-07ZM36.3121 36.75C33.6288 36.75 31.3371 36.1417 29.4371 34.925C27.5371 33.7083 26.0788 32.025 25.0621 29.875C24.0454 27.725 23.5371 25.2583 23.5371 22.475C23.5371 19.6417 24.0538 17.1583 25.0871 15.025C26.1204 12.8917 27.5871 11.2333 29.4871 10.05C31.4038 8.85 33.6788 8.25 36.3121 8.25C39.0121 8.25 41.3121 8.85833 43.2121 10.075C45.1288 11.275 46.5871 12.95 47.5871 15.1C48.6038 17.2333 49.1121 19.6917 49.1121 22.475C49.1121 25.3083 48.6038 27.8 47.5871 29.95C46.5704 32.0833 45.1038 33.75 43.1871 34.95C41.2704 36.15 38.9788 36.75 36.3121 36.75ZM36.3121 33.225C39.3121 33.225 41.5454 32.2333 43.0121 30.25C44.4788 28.25 45.2121 25.6583 45.2121 22.475C45.2121 19.2083 44.4704 16.6083 42.9871 14.675C41.5204 12.7417 39.2954 11.775 36.3121 11.775C34.2954 11.775 32.6288 12.2333 31.3121 13.15C30.0121 14.05 29.0371 15.3083 28.3871 16.925C27.7538 18.525 27.4371 20.375 27.4371 22.475C27.4371 25.725 28.1871 28.3333 29.6871 30.3C31.1871 32.25 33.3954 33.225 36.3121 33.225ZM65.352 48.75C63.9686 48.75 62.602 48.5417 61.252 48.125C59.9186 47.725 58.6853 47.0833 57.552 46.2C56.4186 45.3333 55.4686 44.2 54.702 42.8L58.027 40.95C58.777 42.45 59.827 43.525 61.177 44.175C62.5436 44.8417 63.9353 45.175 65.352 45.175C67.302 45.175 68.877 44.8083 70.077 44.075C71.2936 43.3583 72.177 42.2917 72.727 40.875C73.277 39.4583 73.5436 37.6917 73.527 35.575V28.375H73.952V9H77.227V35.625C77.227 36.3917 77.202 37.125 77.152 37.825C77.1186 38.5417 77.0436 39.2417 76.927 39.925C76.6103 41.9417 75.952 43.6 74.952 44.9C73.9686 46.2 72.6686 47.1667 71.052 47.8C69.452 48.4333 67.552 48.75 65.352 48.75ZM65.102 36.75C62.5853 36.75 60.4353 36.125 58.652 34.875C56.8686 33.6083 55.502 31.9 54.552 29.75C53.602 27.6 53.127 25.175 53.127 22.475C53.127 19.7917 53.5936 17.375 54.527 15.225C55.477 13.075 56.8353 11.375 58.602 10.125C60.3686 8.875 62.4853 8.25 64.952 8.25C67.4853 8.25 69.6186 8.86667 71.352 10.1C73.0853 11.3333 74.3936 13.025 75.277 15.175C76.177 17.3083 76.627 19.7417 76.627 22.475C76.627 25.1583 76.1853 27.5833 75.302 29.75C74.4186 31.9 73.1186 33.6083 71.402 34.875C69.6853 36.125 67.5853 36.75 65.102 36.75ZM65.477 33.325C67.3936 33.325 68.977 32.8583 70.227 31.925C71.477 30.9917 72.4103 29.7083 73.027 28.075C73.6436 26.425 73.952 24.5583 73.952 22.475C73.952 20.3583 73.6436 18.4917 73.027 16.875C72.4103 15.2417 71.477 13.9667 70.227 13.05C68.9936 12.1333 67.4353 11.675 65.552 11.675C63.6186 11.675 62.0186 12.15 60.752 13.1C59.4853 14.05 58.5436 15.3417 57.927 16.975C57.327 18.6083 57.027 20.4417 57.027 22.475C57.027 24.525 57.3353 26.375 57.952 28.025C58.5853 29.6583 59.527 30.95 60.777 31.9C62.027 32.85 63.5936 33.325 65.477 33.325ZM95.4918 36.75C92.8085 36.75 90.5168 36.1417 88.6168 34.925C86.7168 33.7083 85.2585 32.025 84.2418 29.875C83.2251 27.725 82.7168 25.2583 82.7168 22.475C82.7168 19.6417 83.2335 17.1583 84.2668 15.025C85.3001 12.8917 86.7668 11.2333 88.6668 10.05C90.5835 8.85 92.8585 8.25 95.4918 8.25C98.1918 8.25 100.492 8.85833 102.392 10.075C104.308 11.275 105.767 12.95 106.767 15.1C107.783 17.2333 108.292 19.6917 108.292 22.475C108.292 25.3083 107.783 27.8 106.767 29.95C105.75 32.0833 104.283 33.75 102.367 34.95C100.45 36.15 98.1585 36.75 95.4918 36.75ZM95.4918 33.225C98.4918 33.225 100.725 32.2333 102.192 30.25C103.658 28.25 104.392 25.6583 104.392 22.475C104.392 19.2083 103.65 16.6083 102.167 14.675C100.7 12.7417 98.4751 11.775 95.4918 11.775C93.4751 11.775 91.8085 12.2333 90.4918 13.15C89.1918 14.05 88.2168 15.3083 87.5668 16.925C86.9335 18.525 86.6168 20.375 86.6168 22.475C86.6168 25.725 87.3668 28.3333 88.8668 30.3C90.3668 32.25 92.5751 33.225 95.4918 33.225Z" fill="black"/>
</svg>
